<svg xmlns="http://www.w3.org/2000/svg" viewBox='0 0 400 400' width="400px" height="400px" fill='none'  xmlns:xlink="http://www.w3.org/1999/xlink">
<path fill="#000000" d="M -0.5,-0.5 C 32.8333,-0.5 66.1667,-0.5 99.5,-0.5C 99.5,32.8333 99.5,66.1667 99.5,99.5C 66.1667,99.5 32.8333,99.5 -0.5,99.5C -0.5,66.1667 -0.5,32.8333 -0.5,-0.5 Z"/>
<path fill="#fefffe" d="M 99.5,-0.5 C 132.833,-0.5 166.167,-0.5 199.5,-0.5C 199.5,32.8333 199.5,66.1667 199.5,99.5C 166.167,99.5 132.833,99.5 99.5,99.5C 99.5,66.1667 99.5,32.8333 99.5,-0.5 Z"/>
<path fill="#000000" d="M 199.5,-0.5 C 232.833,-0.5 266.167,-0.5 299.5,-0.5C 299.5,32.8333 299.5,66.1667 299.5,99.5C 266.167,99.5 232.833,99.5 199.5,99.5C 199.5,66.1667 199.5,32.8333 199.5,-0.5 Z"/>
<path fill="#fefffe" d="M 299.5,-0.5 C 332.833,-0.5 366.167,-0.5 399.5,-0.5C 399.5,32.8333 399.5,66.1667 399.5,99.5C 366.167,99.5 332.833,99.5 299.5,99.5C 299.5,66.1667 299.5,32.8333 299.5,-0.5 Z"/>
<path fill="#fefffe" d="M -0.5,99.5 C 32.8333,99.5 66.1667,99.5 99.5,99.5C 99.5,132.833 99.5,166.167 99.5,199.5C 66.1667,199.5 32.8333,199.5 -0.5,199.5C -0.5,166.167 -0.5,132.833 -0.5,99.5 Z"/>
<path fill="#000000" d="M 99.5,99.5 C 132.833,99.5 166.167,99.5 199.5,99.5C 199.5,132.833 199.5,166.167 199.5,199.5C 166.167,199.5 132.833,199.5 99.5,199.5C 99.5,166.167 99.5,132.833 99.5,99.5 Z"/>
<path fill="#fefffe" d="M 199.5,99.5 C 232.833,99.5 266.167,99.5 299.5,99.5C 299.5,132.833 299.5,166.167 299.5,199.5C 266.167,199.5 232.833,199.5 199.5,199.5C 199.5,166.167 199.5,132.833 199.5,99.5 Z"/>
<path fill="#000000" d="M 299.5,99.5 C 332.833,99.5 366.167,99.5 399.5,99.5C 399.5,132.833 399.5,166.167 399.5,199.5C 366.167,199.5 332.833,199.5 299.5,199.5C 299.5,166.167 299.5,132.833 299.5,99.5 Z"/>
<path fill="#000000" d="M -0.5,199.5 C 32.8333,199.5 66.1667,199.5 99.5,199.5C 99.5,232.833 99.5,266.167 99.5,299.5C 66.1667,299.5 32.8333,299.5 -0.5,299.5C -0.5,266.167 -0.5,232.833 -0.5,199.5 Z"/>
<path fill="#fefffe" d="M 99.5,199.5 C 132.833,199.5 166.167,199.5 199.5,199.5C 199.5,232.833 199.5,266.167 199.5,299.5C 166.167,299.5 132.833,299.5 99.5,299.5C 99.5,266.167 99.5,232.833 99.5,199.5 Z"/>
<path fill="#000000" d="M 199.5,199.5 C 232.833,199.5 266.167,199.5 299.5,199.5C 299.5,232.833 299.5,266.167 299.5,299.5C 266.167,299.5 232.833,299.5 199.5,299.5C 199.5,266.167 199.5,232.833 199.5,199.5 Z"/>
<path fill="#fefffe" d="M 299.5,199.5 C 332.833,199.5 366.167,199.5 399.5,199.5C 399.5,232.833 399.5,266.167 399.5,299.5C 366.167,299.5 332.833,299.5 299.5,299.5C 299.5,266.167 299.5,232.833 299.5,199.5 Z"/>
<path fill="#fefffe" d="M -0.5,299.5 C 32.8333,299.5 66.1667,299.5 99.5,299.5C 99.5,332.833 99.5,366.167 99.5,399.5C 66.1667,399.5 32.8333,399.5 -0.5,399.5C -0.5,366.167 -0.5,332.833 -0.5,299.5 Z"/>
<path fill="#000000" d="M 99.5,299.5 C 132.833,299.5 166.167,299.5 199.5,299.5C 199.5,332.833 199.5,366.167 199.5,399.5C 166.167,399.5 132.833,399.5 99.5,399.5C 99.5,366.167 99.5,332.833 99.5,299.5 Z"/>
<path fill="#fefffe" d="M 199.5,299.5 C 232.833,299.5 266.167,299.5 299.5,299.5C 299.5,332.833 299.5,366.167 299.5,399.5C 266.167,399.5 232.833,399.5 199.5,399.5C 199.5,366.167 199.5,332.833 199.5,299.5 Z"/>
<path fill="#000000" d="M 299.5,299.5 C 332.833,299.5 366.167,299.5 399.5,299.5C 399.5,332.833 399.5,366.167 399.5,399.5C 366.167,399.5 332.833,399.5 299.5,399.5C 299.5,366.167 299.5,332.833 299.5,299.5 Z"/>
</svg>
